<?xml version="1.0" standalone="no"?>
<!DOCTYPE svg PUBLIC "-//W3C//DTD SVG 20010904//EN"
 "http://www.w3.org/TR/2001/REC-SVG-20010904/DTD/svg10.dtd">
<svg version="1.0" xmlns="http://www.w3.org/2000/svg"
 width="256.000000pt" height="256.000000pt" viewBox="0 0 256.000000 256.000000"
 preserveAspectRatio="xMidYMid meet">
<metadata>
Created by potrace 1.16, written by Peter Selinger 2001-2019
</metadata>
<g transform="translate(0.000000,256.000000) scale(0.014953,-0.014953)"
fill="#000000" stroke="none">
<path d="M6139 13211 c-63 -13 -102 -42 -132 -101 l-28 -55 4 -2120 c4 -2298
0 -2157 57 -2428 161 -778 714 -1472 1439 -1806 309 -143 662 -232 971 -243
l65 -3 3 -2417 2 -2418 -542 0 c-337 0 -560 -4 -588 -11 -158 -36 -202 -237
-74 -335 l37 -29 681 -5 c375 -3 983 -3 1352 0 l671 5 37 29 c128 98 84 299
-74 335 -28 7 -249 11 -582 11 l-538 0 0 2430 0 2430 23 0 c35 0 253 47 352
76 268 79 524 198 735 343 574 393 952 957 1094 1631 52 248 51 200 51 2450
l0 2095 -27 47 c-20 33 -41 53 -75 70 l-48 23 -2415 1 c-1328 1 -2431 -1
-2451 -5z m4641 -1651 l0 -1271 -36 -57 c-111 -174 -278 -331 -456 -430 -185
-103 -462 -156 -679 -132 -329 37 -553 116 -979 347 -445 242 -732 366 -1053
459 -400 115 -776 136 -1087 59 -52 -13 -103 -26 -112 -30 -17 -7 -18 52 -18
1159 l0 1166 2210 0 2210 0 0 -1270z"/>
</g>
</svg>
